<svg width="6" height="17" viewBox="0 0 6 17" fill="none" xmlns="http://www.w3.org/2000/svg">
<path fill-rule="evenodd" clip-rule="evenodd" d="M0.25 14.25C0.25 12.8693 1.36929 11.75 2.75 11.75C4.13071 11.75 5.25 12.8693 5.25 14.25C5.25 15.6307 4.13071 16.75 2.75 16.75C1.36929 16.75 0.25 15.6307 0.25 14.25ZM2.75 13.25C2.19772 13.25 1.75 13.6977 1.75 14.25C1.75 14.8023 2.19772 15.25 2.75 15.25C3.30228 15.25 3.75 14.8023 3.75 14.25C3.75 13.6977 3.30228 13.25 2.75 13.25Z" fill="#6A6781"/>
<path fill-rule="evenodd" clip-rule="evenodd" d="M0.25 2.75C0.25 1.36929 1.36929 0.25 2.75 0.25C4.13071 0.25 5.25 1.36929 5.25 2.75C5.25 4.13071 4.13071 5.25 2.75 5.25C1.36929 5.25 0.25 4.13071 0.25 2.75ZM2.75 1.75C2.19772 1.75 1.75 2.19772 1.75 2.75C1.75 3.30228 2.19772 3.75 2.75 3.75C3.30228 3.75 3.75 3.30228 3.75 2.75C3.75 2.19772 3.30228 1.75 2.75 1.75Z" fill="#6A6781"/>
<path fill-rule="evenodd" clip-rule="evenodd" d="M0.25 8.5C0.25 7.11929 1.36929 6 2.75 6C4.13071 6 5.25 7.11929 5.25 8.5C5.25 9.88071 4.13071 11 2.75 11C1.36929 11 0.25 9.88071 0.25 8.5ZM2.75 7.5C2.19772 7.5 1.75 7.94772 1.75 8.5C1.75 9.05228 2.19772 9.5 2.75 9.5C3.30228 9.5 3.75 9.05228 3.75 8.5C3.75 7.94772 3.30228 7.5 2.75 7.5Z" fill="#6A6781"/>
</svg>
