<svg width="25" height="23" viewBox="0 0 25 23" fill="none" xmlns="http://www.w3.org/2000/svg">
<path d="M8.5 22H1.75C1.33579 22 1 21.6642 1 21.25V16M1 16H8.5M1 16V10M1 10H13V4.75C13 4.33579 12.6642 4 12.25 4M1 10V4.75C1 4.33579 1.33579 4 1.75 4M1.75 4H12.25M1.75 4V1.75C1.75 1.33579 2.08579 1 2.5 1H4.75C5.16421 1 5.5 1.33579 5.5 1.75V4M12.25 4V1.75C12.25 1.33579 11.9142 1 11.5 1H9.25C8.83579 1 8.5 1.33579 8.5 1.75V4M12.25 16V13.75C12.25 13.3358 12.5858 13 13 13H15.25C15.6642 13 16 13.3358 16 13.75V16M12.25 16H22.75M12.25 16C11.8358 16 11.5 16.3358 11.5 16.75V21.25C11.5 21.6642 11.8358 22 12.25 22H22.75C23.1642 22 23.5 21.6642 23.5 21.25V16.75C23.5 16.3358 23.1642 16 22.75 16M19 16V13.75C19 13.3358 19.3358 13 19.75 13H22C22.4142 13 22.75 13.3358 22.75 13.75V16" stroke="inherit" stroke-width="1.5" stroke-linecap="round" stroke-linejoin="round"/>
</svg>
