<svg width="25" height="25" viewBox="0 0 25 25" fill="none" xmlns="http://www.w3.org/2000/svg">
<path d="M9.428 3.748L9.941 5.157M5.105 7.375L6.404 8.125M4.125 12.933L5.603 12.672M15.072 3.748L14.559 5.157M19.395 7.375L13.549 10.75M20.375 12.933L18.897 12.672M12.25 23.5C18.4632 23.5 23.5 18.4632 23.5 12.25C23.5 6.0368 18.4632 1 12.25 1C6.0368 1 1 6.0368 1 12.25C1 18.4632 6.0368 23.5 12.25 23.5ZM12.25 13C13.0784 13 13.75 12.3284 13.75 11.5C13.75 10.6716 13.0784 10 12.25 10C11.4216 10 10.75 10.6716 10.75 11.5C10.75 12.3284 11.4216 13 12.25 13ZM16.75 17.5C16.75 18.3284 16.0784 19 15.25 19H9.25C8.42157 19 7.75 18.3284 7.75 17.5C7.75 16.6716 8.42157 16 9.25 16H15.25C16.0784 16 16.75 16.6716 16.75 17.5Z" stroke="inherit" stroke-width="1.5" stroke-linecap="round" stroke-linejoin="round"/>
</svg>
