<svg width="25" height="24" viewBox="0 0 25 24" fill="none" xmlns="http://www.w3.org/2000/svg">
<path fill-rule="evenodd" clip-rule="evenodd" d="M12.7499 1.65728e-05C17.5263 -0.00814748 21.7872 3.00069 23.3774 7.50471C24.9677 12.0091 23.5399 17.0267 19.8165 20.0191C16.2012 22.9246 11.187 23.3056 7.18538 21.0166L1.07244 23.9272C0.785769 24.0637 0.444206 24.0049 0.219691 23.7803C-0.00482327 23.5558 -0.0636344 23.2143 0.0728623 22.9276L2.9834 16.8148C1.03393 13.4088 0.999499 9.21895 2.91745 5.77215C4.90267 2.20444 8.6671 -0.00542819 12.7499 1.65728e-05ZM21.9629 8.00409C20.5847 4.10026 16.8914 1.49249 12.7514 1.50002L12.7489 1.50002C9.21085 1.49492 5.94854 3.40982 4.22819 6.5015C2.50784 9.59319 2.60034 13.3749 4.46978 16.3787C4.60485 16.5958 4.62007 16.8666 4.51018 17.0974L2.3357 21.6643L6.9026 19.4899C7.13329 19.38 7.40404 19.3952 7.62103 19.5301C11.1369 21.716 15.6498 21.4433 18.8768 18.8499C22.1038 16.2565 23.3412 11.9079 21.9629 8.00409Z" fill="url(#paint0_linear_2043_2447)"/>
<path fill-rule="evenodd" clip-rule="evenodd" d="M9.00002 13.5C9.00002 13.0858 9.33581 12.75 9.75002 12.75H15.75C16.1642 12.75 16.5 13.0858 16.5 13.5C16.5 15.5711 14.8211 17.25 12.75 17.25C10.679 17.25 9.00002 15.5711 9.00002 13.5ZM10.6281 14.25C10.9369 15.1239 11.7704 15.75 12.75 15.75C13.7297 15.75 14.5631 15.1239 14.872 14.25H10.6281Z" fill="url(#paint1_linear_2043_2447)"/>
<path fill-rule="evenodd" clip-rule="evenodd" d="M7.12502 9.75002C7.12502 9.1287 7.6287 8.62502 8.25002 8.62502C8.87134 8.62502 9.37502 9.1287 9.37502 9.75002C9.37502 10.3713 8.87134 10.875 8.25002 10.875C7.6287 10.875 7.12502 10.3713 7.12502 9.75002Z" fill="url(#paint2_linear_2043_2447)"/>
<path fill-rule="evenodd" clip-rule="evenodd" d="M16.125 9.75002C16.125 9.1287 16.6287 8.62502 17.25 8.62502C17.8713 8.62502 18.375 9.1287 18.375 9.75002C18.375 10.3713 17.8713 10.875 17.25 10.875C16.6287 10.875 16.125 10.3713 16.125 9.75002Z" fill="url(#paint3_linear_2043_2447)"/>
<defs>
<linearGradient id="paint0_linear_2043_2447" x1="12.0099" y1="0" x2="12.0099" y2="24" gradientUnits="userSpaceOnUse">
<stop stop-color="#2200FF"/>
<stop offset="1" stop-color="#9E00FF"/>
</linearGradient>
<linearGradient id="paint1_linear_2043_2447" x1="12.0099" y1="0" x2="12.0099" y2="24" gradientUnits="userSpaceOnUse">
<stop stop-color="#2200FF"/>
<stop offset="1" stop-color="#9E00FF"/>
</linearGradient>
<linearGradient id="paint2_linear_2043_2447" x1="12.0099" y1="0" x2="12.0099" y2="24" gradientUnits="userSpaceOnUse">
<stop stop-color="#2200FF"/>
<stop offset="1" stop-color="#9E00FF"/>
</linearGradient>
<linearGradient id="paint3_linear_2043_2447" x1="12.0099" y1="0" x2="12.0099" y2="24" gradientUnits="userSpaceOnUse">
<stop stop-color="#2200FF"/>
<stop offset="1" stop-color="#9E00FF"/>
</linearGradient>
</defs>
</svg>
